<svg width="510" height="78" viewBox="0 0 510 78" fill="none" xmlns="http://www.w3.org/2000/svg">
<g filter="url(#filter0_d_99_97)">
<rect x="10" y="6" width="490" height="58" rx="12" fill="white"/>
</g>
<path d="M78.3125 38.012H74.2385L73.5385 40H71.8725L75.3585 30.256H77.2065L80.6925 40H79.0125L78.3125 38.012ZM77.8645 36.71L76.2825 32.188L74.6865 36.71H77.8645ZM81.6762 36.136C81.6762 35.3427 81.8349 34.6473 82.1522 34.05C82.4789 33.4433 82.9269 32.9767 83.4962 32.65C84.0655 32.3233 84.7189 32.16 85.4562 32.16C86.3895 32.16 87.1595 32.384 87.7662 32.832C88.3822 33.2707 88.7975 33.9007 89.0122 34.722H87.2902C87.1502 34.3393 86.9262 34.0407 86.6182 33.826C86.3102 33.6113 85.9229 33.504 85.4562 33.504C84.8029 33.504 84.2802 33.7373 83.8882 34.204C83.5055 34.6613 83.3142 35.3053 83.3142 36.136C83.3142 36.9667 83.5055 37.6153 83.8882 38.082C84.2802 38.5487 84.8029 38.782 85.4562 38.782C86.3802 38.782 86.9915 38.376 87.2902 37.564H89.0122C88.7882 38.348 88.3682 38.9733 87.7522 39.44C87.1362 39.8973 86.3709 40.126 85.4562 40.126C84.7189 40.126 84.0655 39.9627 83.4962 39.636C82.9269 39.3 82.4789 38.8333 82.1522 38.236C81.8349 37.6293 81.6762 36.9293 81.6762 36.136ZM92.4647 33.588V37.858C92.4647 38.1473 92.5301 38.3573 92.6607 38.488C92.8007 38.6093 93.0341 38.67 93.3607 38.67H94.3407V40H93.0807C92.3621 40 91.8114 39.832 91.4287 39.496C91.0461 39.16 90.8547 38.614 90.8547 37.858V33.588H89.9447V32.286H90.8547V30.368H92.4647V32.286H94.3407V33.588H92.4647ZM96.6237 31.264C96.3344 31.264 96.0917 31.166 95.8957 30.97C95.6997 30.774 95.6017 30.5313 95.6017 30.242C95.6017 29.9527 95.6997 29.71 95.8957 29.514C96.0917 29.318 96.3344 29.22 96.6237 29.22C96.9037 29.22 97.1417 29.318 97.3377 29.514C97.5337 29.71 97.6317 29.9527 97.6317 30.242C97.6317 30.5313 97.5337 30.774 97.3377 30.97C97.1417 31.166 96.9037 31.264 96.6237 31.264ZM97.4077 32.286V40H95.8117V32.286H97.4077ZM102.485 38.572L104.669 32.286H106.363L103.423 40H101.519L98.5931 32.286H100.301L102.485 38.572ZM108.382 31.264C108.092 31.264 107.85 31.166 107.654 30.97C107.458 30.774 107.36 30.5313 107.36 30.242C107.36 29.9527 107.458 29.71 107.654 29.514C107.85 29.318 108.092 29.22 108.382 29.22C108.662 29.22 108.9 29.318 109.096 29.514C109.292 29.71 109.39 29.9527 109.39 30.242C109.39 30.5313 109.292 30.774 109.096 30.97C108.9 31.166 108.662 31.264 108.382 31.264ZM109.166 32.286V40H107.57V32.286H109.166ZM113.123 33.588V37.858C113.123 38.1473 113.188 38.3573 113.319 38.488C113.459 38.6093 113.692 38.67 114.019 38.67H114.999V40H113.739C113.02 40 112.47 39.832 112.087 39.496C111.704 39.16 111.513 38.614 111.513 37.858V33.588H110.603V32.286H111.513V30.368H113.123V32.286H114.999V33.588H113.123ZM123.414 32.286L118.682 43.626H117.03L118.598 39.874L115.56 32.286H117.338L119.508 38.166L121.762 32.286H123.414ZM129.851 33.434C130.122 33.0607 130.49 32.7573 130.957 32.524C131.433 32.2813 131.96 32.16 132.539 32.16C133.22 32.16 133.836 32.3233 134.387 32.65C134.938 32.9767 135.372 33.4433 135.689 34.05C136.006 34.6473 136.165 35.3333 136.165 36.108C136.165 36.8827 136.006 37.578 135.689 38.194C135.372 38.8007 134.933 39.2767 134.373 39.622C133.822 39.958 133.211 40.126 132.539 40.126C131.942 40.126 131.41 40.0093 130.943 39.776C130.486 39.5427 130.122 39.244 129.851 38.88V40H128.255V29.64H129.851V33.434ZM134.541 36.108C134.541 35.576 134.429 35.1187 134.205 34.736C133.99 34.344 133.701 34.05 133.337 33.854C132.982 33.6487 132.6 33.546 132.189 33.546C131.788 33.546 131.405 33.6487 131.041 33.854C130.686 34.0593 130.397 34.358 130.173 34.75C129.958 35.142 129.851 35.604 129.851 36.136C129.851 36.668 129.958 37.1347 130.173 37.536C130.397 37.928 130.686 38.2267 131.041 38.432C131.405 38.6373 131.788 38.74 132.189 38.74C132.6 38.74 132.982 38.6373 133.337 38.432C133.701 38.2173 133.99 37.9093 134.205 37.508C134.429 37.1067 134.541 36.64 134.541 36.108ZM144.813 35.954C144.813 36.2433 144.795 36.5047 144.757 36.738H138.863C138.91 37.354 139.139 37.8487 139.549 38.222C139.96 38.5953 140.464 38.782 141.061 38.782C141.92 38.782 142.527 38.4227 142.881 37.704H144.603C144.37 38.4133 143.945 38.9967 143.329 39.454C142.723 39.902 141.967 40.126 141.061 40.126C140.324 40.126 139.661 39.9627 139.073 39.636C138.495 39.3 138.037 38.8333 137.701 38.236C137.375 37.6293 137.211 36.9293 137.211 36.136C137.211 35.3427 137.37 34.6473 137.687 34.05C138.014 33.4433 138.467 32.9767 139.045 32.65C139.633 32.3233 140.305 32.16 141.061 32.16C141.789 32.16 142.438 32.3187 143.007 32.636C143.577 32.9533 144.02 33.4013 144.337 33.98C144.655 34.5493 144.813 35.2073 144.813 35.954ZM143.147 35.45C143.138 34.862 142.928 34.3907 142.517 34.036C142.107 33.6813 141.598 33.504 140.991 33.504C140.441 33.504 139.969 33.6813 139.577 34.036C139.185 34.3813 138.952 34.8527 138.877 35.45H143.147ZM147.98 33.406C148.213 33.014 148.521 32.7107 148.904 32.496C149.296 32.272 149.758 32.16 150.29 32.16V33.812H149.884C149.259 33.812 148.783 33.9707 148.456 34.288C148.139 34.6053 147.98 35.156 147.98 35.94V40H146.384V32.286H147.98V33.406ZM155.747 32.16C156.335 32.16 156.858 32.286 157.315 32.538C157.782 32.79 158.146 33.1633 158.407 33.658C158.678 34.1527 158.813 34.75 158.813 35.45V40H157.231V35.688C157.231 34.9973 157.058 34.47 156.713 34.106C156.368 33.7327 155.896 33.546 155.299 33.546C154.702 33.546 154.226 33.7327 153.871 34.106C153.526 34.47 153.353 34.9973 153.353 35.688V40H151.757V29.64H153.353V33.182C153.624 32.8553 153.964 32.6033 154.375 32.426C154.795 32.2487 155.252 32.16 155.747 32.16ZM160.317 36.108C160.317 35.3333 160.475 34.6473 160.793 34.05C161.119 33.4527 161.558 32.9907 162.109 32.664C162.669 32.328 163.285 32.16 163.957 32.16C164.563 32.16 165.091 32.2813 165.539 32.524C165.996 32.7573 166.36 33.0513 166.631 33.406V32.286H168.241V40H166.631V38.852C166.36 39.216 165.991 39.5193 165.525 39.762C165.058 40.0047 164.526 40.126 163.929 40.126C163.266 40.126 162.659 39.958 162.109 39.622C161.558 39.2767 161.119 38.8007 160.793 38.194C160.475 37.578 160.317 36.8827 160.317 36.108ZM166.631 36.136C166.631 35.604 166.519 35.142 166.295 34.75C166.08 34.358 165.795 34.0593 165.441 33.854C165.086 33.6487 164.703 33.546 164.293 33.546C163.882 33.546 163.499 33.6487 163.145 33.854C162.79 34.05 162.501 34.344 162.277 34.736C162.062 35.1187 161.955 35.576 161.955 36.108C161.955 36.64 162.062 37.1067 162.277 37.508C162.501 37.9093 162.79 38.2173 163.145 38.432C163.509 38.6373 163.891 38.74 164.293 38.74C164.703 38.74 165.086 38.6373 165.441 38.432C165.795 38.2267 166.08 37.928 166.295 37.536C166.519 37.1347 166.631 36.668 166.631 36.136ZM173.137 40.126C172.53 40.126 171.984 40.0187 171.499 39.804C171.023 39.58 170.645 39.2813 170.365 38.908C170.085 38.5253 169.936 38.1007 169.917 37.634H171.569C171.597 37.9607 171.751 38.236 172.031 38.46C172.32 38.6747 172.68 38.782 173.109 38.782C173.557 38.782 173.902 38.698 174.145 38.53C174.397 38.3527 174.523 38.1287 174.523 37.858C174.523 37.5687 174.383 37.354 174.103 37.214C173.832 37.074 173.398 36.92 172.801 36.752C172.222 36.5933 171.751 36.4393 171.387 36.29C171.023 36.1407 170.706 35.912 170.435 35.604C170.174 35.296 170.043 34.89 170.043 34.386C170.043 33.9753 170.164 33.602 170.407 33.266C170.65 32.9207 170.995 32.65 171.443 32.454C171.9 32.258 172.423 32.16 173.011 32.16C173.888 32.16 174.593 32.384 175.125 32.832C175.666 33.2707 175.956 33.8727 175.993 34.638H174.397C174.369 34.2927 174.229 34.0173 173.977 33.812C173.725 33.6067 173.384 33.504 172.955 33.504C172.535 33.504 172.213 33.5833 171.989 33.742C171.765 33.9007 171.653 34.1107 171.653 34.372C171.653 34.5773 171.728 34.75 171.877 34.89C172.026 35.03 172.208 35.142 172.423 35.226C172.638 35.3007 172.955 35.3987 173.375 35.52C173.935 35.6693 174.392 35.8233 174.747 35.982C175.111 36.1313 175.424 36.3553 175.685 36.654C175.946 36.9527 176.082 37.3493 176.091 37.844C176.091 38.2827 175.97 38.6747 175.727 39.02C175.484 39.3653 175.139 39.636 174.691 39.832C174.252 40.028 173.734 40.126 173.137 40.126ZM178.628 31.264C178.338 31.264 178.096 31.166 177.9 30.97C177.704 30.774 177.606 30.5313 177.606 30.242C177.606 29.9527 177.704 29.71 177.9 29.514C178.096 29.318 178.338 29.22 178.628 29.22C178.908 29.22 179.146 29.318 179.342 29.514C179.538 29.71 179.636 29.9527 179.636 30.242C179.636 30.5313 179.538 30.774 179.342 30.97C179.146 31.166 178.908 31.264 178.628 31.264ZM179.412 32.286V40H177.816V32.286H179.412ZM183.103 29.64V40H181.507V29.64H183.103ZM188.303 36.108C188.303 35.3333 188.462 34.6473 188.779 34.05C189.106 33.4527 189.544 32.9907 190.095 32.664C190.655 32.328 191.276 32.16 191.957 32.16C192.461 32.16 192.956 32.272 193.441 32.496C193.936 32.7107 194.328 33 194.617 33.364V29.64H196.227V40H194.617V38.838C194.356 39.2113 193.992 39.5193 193.525 39.762C193.068 40.0047 192.54 40.126 191.943 40.126C191.271 40.126 190.655 39.958 190.095 39.622C189.544 39.2767 189.106 38.8007 188.779 38.194C188.462 37.578 188.303 36.8827 188.303 36.108ZM194.617 36.136C194.617 35.604 194.505 35.142 194.281 34.75C194.066 34.358 193.782 34.0593 193.427 33.854C193.072 33.6487 192.69 33.546 192.279 33.546C191.868 33.546 191.486 33.6487 191.131 33.854C190.776 34.05 190.487 34.344 190.263 34.736C190.048 35.1187 189.941 35.576 189.941 36.108C189.941 36.64 190.048 37.1067 190.263 37.508C190.487 37.9093 190.776 38.2173 191.131 38.432C191.495 38.6373 191.878 38.74 192.279 38.74C192.69 38.74 193.072 38.6373 193.427 38.432C193.782 38.2267 194.066 37.928 194.281 37.536C194.505 37.1347 194.617 36.668 194.617 36.136ZM199.135 31.264C198.846 31.264 198.603 31.166 198.407 30.97C198.211 30.774 198.113 30.5313 198.113 30.242C198.113 29.9527 198.211 29.71 198.407 29.514C198.603 29.318 198.846 29.22 199.135 29.22C199.415 29.22 199.653 29.318 199.849 29.514C200.045 29.71 200.143 29.9527 200.143 30.242C200.143 30.5313 200.045 30.774 199.849 30.97C199.653 31.166 199.415 31.264 199.135 31.264ZM199.919 32.286V40H198.323V32.286H199.919ZM206.005 32.16C206.593 32.16 207.116 32.286 207.573 32.538C208.04 32.79 208.404 33.1633 208.665 33.658C208.936 34.1527 209.071 34.75 209.071 35.45V40H207.489V35.688C207.489 34.9973 207.316 34.47 206.971 34.106C206.626 33.7327 206.154 33.546 205.557 33.546C204.96 33.546 204.484 33.7327 204.129 34.106C203.784 34.47 203.611 34.9973 203.611 35.688V40H202.015V29.64H203.611V33.182C203.882 32.8553 204.222 32.6033 204.633 32.426C205.053 32.2487 205.51 32.16 206.005 32.16ZM210.575 36.108C210.575 35.3333 210.733 34.6473 211.051 34.05C211.377 33.4527 211.816 32.9907 212.367 32.664C212.927 32.328 213.543 32.16 214.215 32.16C214.821 32.16 215.349 32.2813 215.797 32.524C216.254 32.7573 216.618 33.0513 216.889 33.406V32.286H218.499V40H216.889V38.852C216.618 39.216 216.249 39.5193 215.783 39.762C215.316 40.0047 214.784 40.126 214.187 40.126C213.524 40.126 212.917 39.958 212.367 39.622C211.816 39.2767 211.377 38.8007 211.051 38.194C210.733 37.578 210.575 36.8827 210.575 36.108ZM216.889 36.136C216.889 35.604 216.777 35.142 216.553 34.75C216.338 34.358 216.053 34.0593 215.699 33.854C215.344 33.6487 214.961 33.546 214.551 33.546C214.14 33.546 213.757 33.6487 213.403 33.854C213.048 34.05 212.759 34.344 212.535 34.736C212.32 35.1187 212.213 35.576 212.213 36.108C212.213 36.64 212.32 37.1067 212.535 37.508C212.759 37.9093 213.048 38.2173 213.403 38.432C213.767 38.6373 214.149 38.74 214.551 38.74C214.961 38.74 215.344 38.6373 215.699 38.432C216.053 38.2267 216.338 37.928 216.553 37.536C216.777 37.1347 216.889 36.668 216.889 36.136ZM222.191 33.42C222.462 33.0653 222.83 32.7667 223.297 32.524C223.764 32.2813 224.291 32.16 224.879 32.16C225.551 32.16 226.162 32.328 226.713 32.664C227.273 32.9907 227.712 33.4527 228.029 34.05C228.346 34.6473 228.505 35.3333 228.505 36.108C228.505 36.8827 228.346 37.578 228.029 38.194C227.712 38.8007 227.273 39.2767 226.713 39.622C226.162 39.958 225.551 40.126 224.879 40.126C224.291 40.126 223.768 40.0093 223.311 39.776C222.854 39.5333 222.48 39.2347 222.191 38.88V43.668H220.595V32.286H222.191V33.42ZM226.881 36.108C226.881 35.576 226.769 35.1187 226.545 34.736C226.33 34.344 226.041 34.05 225.677 33.854C225.322 33.6487 224.94 33.546 224.529 33.546C224.128 33.546 223.745 33.6487 223.381 33.854C223.026 34.0593 222.737 34.358 222.513 34.75C222.298 35.142 222.191 35.604 222.191 36.136C222.191 36.668 222.298 37.1347 222.513 37.536C222.737 37.928 223.026 38.2267 223.381 38.432C223.745 38.6373 224.128 38.74 224.529 38.74C224.94 38.74 225.322 38.6373 225.677 38.432C226.041 38.2173 226.33 37.9093 226.545 37.508C226.769 37.1067 226.881 36.64 226.881 36.108ZM237.069 32.286V40H235.473V39.09C235.221 39.4073 234.89 39.6593 234.479 39.846C234.078 40.0233 233.649 40.112 233.191 40.112C232.585 40.112 232.039 39.986 231.553 39.734C231.077 39.482 230.699 39.1087 230.419 38.614C230.149 38.1193 230.013 37.522 230.013 36.822V32.286H231.595V36.584C231.595 37.2747 231.768 37.8067 232.113 38.18C232.459 38.544 232.93 38.726 233.527 38.726C234.125 38.726 234.596 38.544 234.941 38.18C235.296 37.8067 235.473 37.2747 235.473 36.584V32.286H237.069ZM241.975 40.126C241.368 40.126 240.822 40.0187 240.337 39.804C239.861 39.58 239.483 39.2813 239.203 38.908C238.923 38.5253 238.774 38.1007 238.755 37.634H240.407C240.435 37.9607 240.589 38.236 240.869 38.46C241.158 38.6747 241.518 38.782 241.947 38.782C242.395 38.782 242.74 38.698 242.983 38.53C243.235 38.3527 243.361 38.1287 243.361 37.858C243.361 37.5687 243.221 37.354 242.941 37.214C242.67 37.074 242.236 36.92 241.639 36.752C241.06 36.5933 240.589 36.4393 240.225 36.29C239.861 36.1407 239.544 35.912 239.273 35.604C239.012 35.296 238.881 34.89 238.881 34.386C238.881 33.9753 239.002 33.602 239.245 33.266C239.488 32.9207 239.833 32.65 240.281 32.454C240.738 32.258 241.261 32.16 241.849 32.16C242.726 32.16 243.431 32.384 243.963 32.832C244.504 33.2707 244.794 33.8727 244.831 34.638H243.235C243.207 34.2927 243.067 34.0173 242.815 33.812C242.563 33.6067 242.222 33.504 241.793 33.504C241.373 33.504 241.051 33.5833 240.827 33.742C240.603 33.9007 240.491 34.1107 240.491 34.372C240.491 34.5773 240.566 34.75 240.715 34.89C240.864 35.03 241.046 35.142 241.261 35.226C241.476 35.3007 241.793 35.3987 242.213 35.52C242.773 35.6693 243.23 35.8233 243.585 35.982C243.949 36.1313 244.262 36.3553 244.523 36.654C244.784 36.9527 244.92 37.3493 244.929 37.844C244.929 38.2827 244.808 38.6747 244.565 39.02C244.322 39.3653 243.977 39.636 243.529 39.832C243.09 40.028 242.572 40.126 241.975 40.126Z" fill="#111111"/>
<path d="M49 44C53.9706 44 58 39.9706 58 35C58 30.0294 53.9706 26 49 26C44.0294 26 40 30.0294 40 35C40 39.9706 44.0294 44 49 44Z" stroke="#00A790" stroke-width="2" stroke-linecap="round" stroke-linejoin="round"/>
<path d="M49 31V35" stroke="#00A790" stroke-width="2" stroke-linecap="round" stroke-linejoin="round"/>
<path d="M49 39H49.01" stroke="#00A790" stroke-width="2" stroke-linecap="round" stroke-linejoin="round"/>
<defs>
<filter id="filter0_d_99_97" x="0" y="0" width="510" height="78" filterUnits="userSpaceOnUse" color-interpolation-filters="sRGB">
<feFlood flood-opacity="0" result="BackgroundImageFix"/>
<feColorMatrix in="SourceAlpha" type="matrix" values="0 0 0 0 0 0 0 0 0 0 0 0 0 0 0 0 0 0 127 0" result="hardAlpha"/>
<feOffset dy="4"/>
<feGaussianBlur stdDeviation="5"/>
<feComposite in2="hardAlpha" operator="out"/>
<feColorMatrix type="matrix" values="0 0 0 0 0 0 0 0 0 0 0 0 0 0 0 0 0 0 0.1 0"/>
<feBlend mode="normal" in2="BackgroundImageFix" result="effect1_dropShadow_99_97"/>
<feBlend mode="normal" in="SourceGraphic" in2="effect1_dropShadow_99_97" result="shape"/>
</filter>
</defs>
</svg>
